<svg width="715" height="200" viewBox="0 0 715 200" fill="none" xmlns="http://www.w3.org/2000/svg">
<path d="M204.25 64.8828H188.412L170.582 76.0391V90.7812L186.818 80.8203H187.217V137H204.25V64.8828ZM242.432 137.996C261.159 137.996 272.664 124.648 272.614 100.941C272.664 77.3838 261.159 63.8867 242.432 63.8867C223.706 63.8867 212.251 77.2842 212.251 100.941C212.251 124.599 223.706 137.996 242.432 137.996ZM229.682 100.941C229.732 85.2031 234.812 77.6826 242.432 77.6328C250.102 77.6826 255.182 85.2031 255.182 100.941C255.232 116.929 250.102 124.15 242.432 124.15C234.762 124.15 229.632 116.929 229.682 100.941Z" fill="#416BFF"/>
<path d="M343.223 85.502H357.566C357.367 72.752 346.858 63.8867 330.871 63.8867C315.083 63.8867 303.528 72.6025 303.578 85.7012C303.578 96.2598 311.049 102.336 323.201 105.324L331.07 107.217C338.939 109.159 343.422 111.45 343.422 116.381C343.422 121.76 338.342 125.445 330.473 125.445C322.504 125.445 316.727 121.76 316.229 114.488H301.686C302.134 129.978 313.24 138.046 330.672 137.996C348.253 138.046 358.513 129.579 358.562 116.381C358.513 104.378 349.299 98.1025 336.947 95.2637L330.473 93.6699C324.247 92.2754 318.868 89.9346 318.918 84.7051C318.968 79.9238 323.201 76.4375 330.771 76.4375C338.093 76.4375 342.625 79.7744 343.223 85.502ZM390.489 138.096C403.837 138.046 412.802 131.571 414.894 121.561H400.849C399.404 124.798 395.818 126.989 390.788 127.039C383.168 126.989 378.337 121.959 378.337 113.791H415.292V109.607C415.292 91.1797 404.086 82.2148 389.892 82.2148C374.054 82.2148 363.744 93.5205 363.794 110.205C363.744 127.338 373.904 138.046 390.489 138.096ZM378.337 104.527C378.636 98.3018 383.417 93.2217 390.19 93.2715C396.765 93.2217 401.297 97.9531 401.347 104.527H378.337ZM446.82 138.096C461.164 138.046 470.179 129.629 470.826 117.377H456.981C456.034 123.104 452.199 126.342 447.02 126.342C439.848 126.342 435.266 120.365 435.266 109.906C435.266 99.6465 439.947 93.7197 447.02 93.6699C452.598 93.7197 456.084 97.4053 456.981 102.734H470.826C470.229 90.333 460.766 82.2148 446.82 82.2148C430.435 82.2148 420.274 93.5703 420.324 110.105C420.274 126.591 430.235 138.046 446.82 138.096ZM502.255 138.096C518.641 138.046 528.801 126.84 528.851 110.105C528.801 93.4209 518.641 82.2148 502.255 82.2148C485.919 82.2148 475.709 93.4209 475.759 110.105C475.709 126.84 485.919 138.046 502.255 138.096ZM490.7 110.105C490.7 100.593 494.635 93.4707 502.355 93.4707C509.875 93.4707 513.859 100.593 513.81 110.105C513.859 119.568 509.875 126.591 502.355 126.641C494.635 126.591 490.7 119.568 490.7 110.105ZM550.817 105.723C550.817 98.6006 555.05 94.4668 561.176 94.4668C567.302 94.4668 570.888 98.4512 570.938 105.125V137H585.58V102.535C585.63 89.9346 578.259 82.2148 566.953 82.2148C558.935 82.2148 553.157 86.1494 550.717 92.375H550.119V82.9121H536.074V137H550.817V105.723ZM614.917 137.896C623.733 137.896 628.215 132.816 630.257 128.334H630.954V137H645.497V64.8828H630.755V91.9766H630.257C628.315 87.5938 623.982 82.2148 614.917 82.2148C602.964 82.2148 592.904 91.4785 592.904 110.006C592.904 128.085 602.566 137.896 614.917 137.896ZM608.044 109.906C607.994 100.493 611.979 93.9688 619.499 93.9688C626.92 93.9688 631.054 100.194 631.054 109.906C631.054 119.668 626.87 126.093 619.499 126.143C612.029 126.093 607.994 119.469 608.044 109.906Z" fill="#416BFF"/>
<path d="M48.7692 83.007C48.7692 74.6938 55.5084 67.9546 63.8217 67.9546H113.996C122.31 67.9546 129.049 74.6938 129.049 83.007V127.448C129.049 135.761 122.31 142.5 113.996 142.5H63.8217C55.5084 142.5 48.7692 135.761 48.7692 127.448V83.007Z" fill="#416BFF"/>
<path d="M81.4 96C81.4 99.866 78.266 103 74.4 103C70.534 103 67.4 99.866 67.4 96C67.4 92.134 70.534 89 74.4 89C78.266 89 81.4 92.134 81.4 96Z" fill="white"/>
<path d="M110.4 96C110.4 99.866 107.266 103 103.4 103C99.534 103 96.4 99.866 96.4 96C96.4 92.134 99.534 89 103.4 89C107.266 89 110.4 92.134 110.4 96Z" fill="white"/>
<path fill-rule="evenodd" clip-rule="evenodd" d="M88.8683 124C95.3704 124 100.758 119.226 101.717 112.993C101.884 111.901 100.973 111 99.8683 111H77.8683C76.7637 111 75.8521 111.901 76.02 112.993C76.9789 119.226 82.3661 124 88.8683 124Z" fill="white"/>
<path fill-rule="evenodd" clip-rule="evenodd" d="M113.996 77.9896H63.8217C61.0506 77.9896 58.8042 80.236 58.8042 83.007V127.448C58.8042 130.219 61.0506 132.465 63.8217 132.465H113.996C116.768 132.465 119.014 130.219 119.014 127.448V83.007C119.014 80.236 116.768 77.9896 113.996 77.9896ZM63.8217 67.9546C55.5084 67.9546 48.7692 74.6938 48.7692 83.007V127.448C48.7692 135.761 55.5084 142.5 63.8217 142.5H113.996C122.31 142.5 129.049 135.761 129.049 127.448V83.007C129.049 74.6938 122.31 67.9546 113.996 67.9546H63.8217Z" fill="#416BFF"/>
<path d="M99.6608 50.7517C99.6608 56.6898 94.8471 61.5035 88.9091 61.5035C82.9711 61.5035 78.1573 56.6898 78.1573 50.7517C78.1573 44.8137 82.9711 40 88.9091 40C94.8471 40 99.6608 44.8137 99.6608 50.7517Z" fill="#416BFF"/>
<path d="M83.8916 54.3357H93.9266V70.1049H83.8916V54.3357Z" fill="#416BFF"/>
<path d="M134.783 95.9091C134.783 93.138 137.03 90.8916 139.801 90.8916C142.572 90.8916 144.818 93.138 144.818 95.9091V114.545C144.818 117.317 142.572 119.563 139.801 119.563C137.03 119.563 134.783 117.317 134.783 114.545V95.9091Z" fill="#416BFF"/>
<path d="M33 95.9091C33 93.138 35.2464 90.8916 38.0175 90.8916C40.7886 90.8916 43.035 93.138 43.035 95.9091V114.545C43.035 117.317 40.7886 119.563 38.0175 119.563C35.2464 119.563 33 117.317 33 114.545V95.9091Z" fill="#416BFF"/>
</svg>
